<?xml version="1.0" encoding="utf-8" standalone="no"?>
<!DOCTYPE svg PUBLIC "-//W3C//DTD SVG 1.1//EN"
  "http://www.w3.org/Graphics/SVG/1.1/DTD/svg11.dtd">
<svg xmlns:xlink="http://www.w3.org/1999/xlink" width="460.8pt" height="345.6pt" viewBox="0 0 460.8 345.6" xmlns="http://www.w3.org/2000/svg" version="1.1">
 <metadata>
  <rdf:RDF xmlns:dc="http://purl.org/dc/elements/1.1/" xmlns:cc="http://creativecommons.org/ns#" xmlns:rdf="http://www.w3.org/1999/02/22-rdf-syntax-ns#">
   <cc:Work>
    <dc:type rdf:resource="http://purl.org/dc/dcmitype/StillImage"/>
    <dc:date>2023-05-11T10:39:18.964528</dc:date>
    <dc:format>image/svg+xml</dc:format>
    <dc:creator>
     <cc:Agent>
      <dc:title>Matplotlib v3.7.1, https://matplotlib.org/</dc:title>
     </cc:Agent>
    </dc:creator>
   </cc:Work>
  </rdf:RDF>
 </metadata>
 <defs>
  <style type="text/css">*{stroke-linejoin: round; stroke-linecap: butt}</style>
 </defs>
 <g id="figure_1">
  <g id="patch_1">
   <path d="M 0 345.6 
L 460.8 345.6 
L 460.8 0 
L 0 0 
z
" style="fill: #ffffff"/>
  </g>
  <g id="axes_1">
   <g id="patch_2">
    <path d="M 57.6 307.584 
L 414.72 307.584 
L 414.72 41.472 
L 57.6 41.472 
z
" style="fill: #ffffff"/>
   </g>
   <g id="PolyCollection_1">
    <path d="M 87.360769 488.61373 
L 87.359231 488.61373 
L 87.356447 484.312769 
L 87.354326 480.011809 
L 87.356867 475.710848 
L 87.359402 471.409887 
L 87.35996 467.108926 
L 87.359999 462.807965 
L 87.36 458.507005 
L 87.36 454.206044 
L 87.36 449.905083 
L 87.36 445.604122 
L 87.36 441.303161 
L 87.36 437.002201 
L 87.36 432.70124 
L 87.36 428.400279 
L 87.36 424.099318 
L 87.36 419.798358 
L 87.36 415.497397 
L 87.36 411.196436 
L 87.36 406.895475 
L 87.36 402.594514 
L 87.36 398.293554 
L 87.36 393.992593 
L 87.36 389.691632 
L 87.36 385.390671 
L 87.36 381.08971 
L 87.36 376.78875 
L 87.36 372.487789 
L 87.36 368.186828 
L 87.36 363.885867 
L 87.36 359.584906 
L 87.36 355.283946 
L 87.36 350.982985 
L 87.36 346.682024 
L 87.36 342.381063 
L 87.36 338.080102 
L 87.36 333.779142 
L 87.36 329.478181 
L 87.36 325.17722 
L 87.36 320.876259 
L 87.36 316.575299 
L 87.359997 312.274338 
L 87.359913 307.973377 
L 87.358982 303.672416 
L 87.355647 299.371455 
L 87.351673 295.070495 
L 87.347064 290.769534 
L 87.336963 286.468573 
L 87.323112 282.167612 
L 87.306513 277.866651 
L 87.2749 273.565691 
L 87.213671 269.26473 
L 87.110172 264.963769 
L 86.944314 260.662808 
L 86.649239 256.361847 
L 86.103854 252.060887 
L 85.176143 247.759926 
L 83.703399 243.458965 
L 81.525894 239.158004 
L 78.506788 234.857043 
L 75.021689 230.556083 
L 71.983203 226.255122 
L 70.227973 221.954161 
L 69.862603 217.6532 
L 70.313814 213.35224 
L 71.267137 209.051279 
L 72.177312 204.750318 
L 72.607719 200.449357 
L 72.613986 196.148396 
L 72.388452 191.847436 
L 72.003988 187.546475 
L 71.431852 183.245514 
L 70.832745 178.944553 
L 70.379481 174.643592 
L 70.209757 170.342632 
L 70.513029 166.041671 
L 71.367661 161.74071 
L 72.408385 157.439749 
L 73.542368 153.138788 
L 74.991446 148.837828 
L 76.479505 144.536867 
L 77.855674 140.235906 
L 79.025089 135.934945 
L 80.066165 131.633984 
L 81.071411 127.333024 
L 82.076578 123.032063 
L 83.028368 118.731102 
L 83.783672 114.430141 
L 84.430973 110.129181 
L 84.9749 105.82822 
L 85.382792 101.527259 
L 85.737838 97.226298 
L 86.059377 92.925337 
L 86.375704 88.624377 
L 86.573557 84.323416 
L 86.552544 80.022455 
L 85.847606 75.721494 
L 85.092817 71.420533 
L 85.990103 67.119573 
L 87.066273 62.818612 
L 87.653727 62.818612 
L 87.653727 62.818612 
L 88.729897 67.119573 
L 89.627183 71.420533 
L 88.872394 75.721494 
L 88.167456 80.022455 
L 88.146443 84.323416 
L 88.344296 88.624377 
L 88.660623 92.925337 
L 88.982162 97.226298 
L 89.337208 101.527259 
L 89.7451 105.82822 
L 90.289027 110.129181 
L 90.936328 114.430141 
L 91.691632 118.731102 
L 92.643422 123.032063 
L 93.648589 127.333024 
L 94.653835 131.633984 
L 95.694911 135.934945 
L 96.864326 140.235906 
L 98.240495 144.536867 
L 99.728554 148.837828 
L 101.177632 153.138788 
L 102.311615 157.439749 
L 103.352339 161.74071 
L 104.206971 166.041671 
L 104.510243 170.342632 
L 104.340519 174.643592 
L 103.887255 178.944553 
L 103.288148 183.245514 
L 102.716012 187.546475 
L 102.331548 191.847436 
L 102.106014 196.148396 
L 102.112281 200.449357 
L 102.542688 204.750318 
L 103.452863 209.051279 
L 104.406186 213.35224 
L 104.857397 217.6532 
L 104.492027 221.954161 
L 102.736797 226.255122 
L 99.698311 230.556083 
L 96.213212 234.857043 
L 93.194106 239.158004 
L 91.016601 243.458965 
L 89.543857 247.759926 
L 88.616146 252.060887 
L 88.070761 256.361847 
L 87.775686 260.662808 
L 87.609828 264.963769 
L 87.506329 269.26473 
L 87.4451 273.565691 
L 87.413487 277.866651 
L 87.396888 282.167612 
L 87.383037 286.468573 
L 87.372936 290.769534 
L 87.368327 295.070495 
L 87.364353 299.371455 
L 87.361018 303.672416 
L 87.360087 307.973377 
L 87.360003 312.274338 
L 87.36 316.575299 
L 87.36 320.876259 
L 87.36 325.17722 
L 87.36 329.478181 
L 87.36 333.779142 
L 87.36 338.080102 
L 87.36 342.381063 
L 87.36 346.682024 
L 87.36 350.982985 
L 87.36 355.283946 
L 87.36 359.584906 
L 87.36 363.885867 
L 87.36 368.186828 
L 87.36 372.487789 
L 87.36 376.78875 
L 87.36 381.08971 
L 87.36 385.390671 
L 87.36 389.691632 
L 87.36 393.992593 
L 87.36 398.293554 
L 87.36 402.594514 
L 87.36 406.895475 
L 87.36 411.196436 
L 87.36 415.497397 
L 87.36 419.798358 
L 87.36 424.099318 
L 87.36 428.400279 
L 87.36 432.70124 
L 87.36 437.002201 
L 87.36 441.303161 
L 87.36 445.604122 
L 87.36 449.905083 
L 87.36 454.206044 
L 87.36 458.507005 
L 87.360001 462.807965 
L 87.36004 467.108926 
L 87.360598 471.409887 
L 87.363133 475.710848 
L 87.365674 480.011809 
L 87.363553 484.312769 
L 87.360769 488.61373 
z
" clip-path="url(#pcbb28965b4)" style="fill: #3274a1; stroke: #3d3d3d; stroke-width: 1.5"/>
   </g>
   <g id="PolyCollection_2">
    <path d="M 146.880382 488.665417 
L 146.879618 488.665417 
L 146.878245 484.363412 
L 146.877178 480.061407 
L 146.878412 475.759402 
L 146.879687 471.457397 
L 146.879978 467.155392 
L 146.879999 462.853387 
L 146.88 458.551382 
L 146.88 454.249378 
L 146.88 449.947373 
L 146.88 445.645368 
L 146.88 441.343363 
L 146.88 437.041358 
L 146.88 432.739353 
L 146.88 428.437348 
L 146.88 424.135343 
L 146.88 419.833338 
L 146.88 415.531333 
L 146.88 411.229328 
L 146.88 406.927323 
L 146.88 402.625318 
L 146.88 398.323313 
L 146.88 394.021308 
L 146.88 389.719303 
L 146.88 385.417298 
L 146.88 381.115293 
L 146.88 376.813288 
L 146.88 372.511283 
L 146.88 368.209278 
L 146.88 363.907273 
L 146.88 359.605268 
L 146.88 355.303263 
L 146.88 351.001258 
L 146.88 346.699253 
L 146.88 342.397248 
L 146.88 338.095243 
L 146.88 333.793238 
L 146.88 329.491233 
L 146.88 325.189228 
L 146.88 320.887223 
L 146.88 316.585218 
L 146.88 312.283213 
L 146.879998 307.981208 
L 146.879938 303.679203 
L 146.879328 299.377198 
L 146.87687 295.075193 
L 146.870539 290.773188 
L 146.857281 286.471183 
L 146.83957 282.169178 
L 146.812509 277.867173 
L 146.760754 273.565168 
L 146.684646 269.263164 
L 146.596834 264.961159 
L 146.430653 260.659154 
L 146.084435 256.357149 
L 145.56163 252.055144 
L 144.71039 247.753139 
L 143.193022 243.451134 
L 140.96403 239.149129 
L 138.191832 234.847124 
L 134.949041 230.545119 
L 131.854965 226.243114 
L 129.824571 221.941109 
L 129.30756 217.639104 
L 129.938401 213.337099 
L 131.035211 209.035094 
L 132.006915 204.733089 
L 132.375568 200.431084 
L 132.136715 196.129079 
L 131.750636 191.827074 
L 131.36213 187.525069 
L 130.824855 183.223064 
L 130.241116 178.921059 
L 129.930722 174.619054 
L 130.010479 170.317049 
L 130.531973 166.015044 
L 131.395069 161.713039 
L 132.22618 157.411034 
L 133.007269 153.109029 
L 134.035118 148.807024 
L 135.47392 144.505019 
L 136.989826 140.203014 
L 138.411236 135.901009 
L 139.687369 131.599004 
L 140.735727 127.296999 
L 141.580132 122.994994 
L 142.389563 118.692989 
L 143.184313 114.390984 
L 143.844158 110.088979 
L 144.424289 105.786974 
L 144.875605 101.484969 
L 145.180724 97.182964 
L 145.465616 92.880959 
L 145.726528 88.578954 
L 145.927589 84.27695 
L 145.985316 79.974945 
L 145.343336 75.67294 
L 144.642628 71.370935 
L 145.538749 67.06893 
L 146.590703 62.766925 
L 147.169297 62.766925 
L 147.169297 62.766925 
L 148.221251 67.06893 
L 149.117372 71.370935 
L 148.416664 75.67294 
L 147.774684 79.974945 
L 147.832411 84.27695 
L 148.033472 88.578954 
L 148.294384 92.880959 
L 148.579276 97.182964 
L 148.884395 101.484969 
L 149.335711 105.786974 
L 149.915842 110.088979 
L 150.575687 114.390984 
L 151.370437 118.692989 
L 152.179868 122.994994 
L 153.024273 127.296999 
L 154.072631 131.599004 
L 155.348764 135.901009 
L 156.770174 140.203014 
L 158.28608 144.505019 
L 159.724882 148.807024 
L 160.752731 153.109029 
L 161.53382 157.411034 
L 162.364931 161.713039 
L 163.228027 166.015044 
L 163.749521 170.317049 
L 163.829278 174.619054 
L 163.518884 178.921059 
L 162.935145 183.223064 
L 162.39787 187.525069 
L 162.009364 191.827074 
L 161.623285 196.129079 
L 161.384432 200.431084 
L 161.753085 204.733089 
L 162.724789 209.035094 
L 163.821599 213.337099 
L 164.45244 217.639104 
L 163.935429 221.941109 
L 161.905035 226.243114 
L 158.810959 230.545119 
L 155.568168 234.847124 
L 152.79597 239.149129 
L 150.566978 243.451134 
L 149.04961 247.753139 
L 148.19837 252.055144 
L 147.675565 256.357149 
L 147.329347 260.659154 
L 147.163166 264.961159 
L 147.075354 269.263164 
L 146.999246 273.565168 
L 146.947491 277.867173 
L 146.92043 282.169178 
L 146.902719 286.471183 
L 146.889461 290.773188 
L 146.88313 295.075193 
L 146.880672 299.377198 
L 146.880062 303.679203 
L 146.880002 307.981208 
L 146.88 312.283213 
L 146.88 316.585218 
L 146.88 320.887223 
L 146.88 325.189228 
L 146.88 329.491233 
L 146.88 333.793238 
L 146.88 338.095243 
L 146.88 342.397248 
L 146.88 346.699253 
L 146.88 351.001258 
L 146.88 355.303263 
L 146.88 359.605268 
L 146.88 363.907273 
L 146.88 368.209278 
L 146.88 372.511283 
L 146.88 376.813288 
L 146.88 381.115293 
L 146.88 385.417298 
L 146.88 389.719303 
L 146.88 394.021308 
L 146.88 398.323313 
L 146.88 402.625318 
L 146.88 406.927323 
L 146.88 411.229328 
L 146.88 415.531333 
L 146.88 419.833338 
L 146.88 424.135343 
L 146.88 428.437348 
L 146.88 432.739353 
L 146.88 437.041358 
L 146.88 441.343363 
L 146.88 445.645368 
L 146.88 449.947373 
L 146.88 454.249378 
L 146.88 458.551382 
L 146.880001 462.853387 
L 146.880022 467.155392 
L 146.880313 471.457397 
L 146.881588 475.759402 
L 146.882822 480.061407 
L 146.881755 484.363412 
L 146.880382 488.665417 
z
" clip-path="url(#pcbb28965b4)" style="fill: #e1812c; stroke: #3d3d3d; stroke-width: 1.5"/>
   </g>
   <g id="PolyCollection_3">
    <path d="M 206.400384 488.638244 
L 206.399616 488.638244 
L 206.398234 484.336788 
L 206.39717 480.035332 
L 206.398423 475.733876 
L 206.399694 471.43242 
L 206.399979 467.130964 
L 206.4 462.829508 
L 206.4 458.528052 
L 206.4 454.226596 
L 206.4 449.92514 
L 206.4 445.623684 
L 206.4 441.322228 
L 206.4 437.020772 
L 206.4 432.719316 
L 206.4 428.41786 
L 206.4 424.116404 
L 206.4 419.814948 
L 206.4 415.513491 
L 206.4 411.212035 
L 206.4 406.910579 
L 206.4 402.609123 
L 206.4 398.307667 
L 206.4 394.006211 
L 206.4 389.704755 
L 206.4 385.403299 
L 206.4 381.101843 
L 206.4 376.800387 
L 206.4 372.498931 
L 206.4 368.197475 
L 206.4 363.896019 
L 206.4 359.594563 
L 206.4 355.293107 
L 206.4 350.991651 
L 206.4 346.690195 
L 206.4 342.388739 
L 206.4 338.087283 
L 206.4 333.785827 
L 206.4 329.484371 
L 206.4 325.182915 
L 206.4 320.881459 
L 206.4 316.580003 
L 206.399999 312.278547 
L 206.399952 307.977091 
L 206.399437 303.675635 
L 206.397337 299.374179 
L 206.393226 295.072723 
L 206.386328 290.771267 
L 206.37696 286.469811 
L 206.367139 282.168355 
L 206.343634 277.866899 
L 206.282979 273.565443 
L 206.204289 269.263987 
L 206.11225 264.962531 
L 205.93408 260.661075 
L 205.5955 256.359619 
L 205.082396 252.058163 
L 204.207797 247.756707 
L 202.659229 243.455251 
L 200.386687 239.153795 
L 197.458731 234.852339 
L 194.075732 230.550883 
L 191.007978 226.249427 
L 189.1389 221.947971 
L 188.750563 217.646515 
L 189.447457 213.345059 
L 190.588801 209.043603 
L 191.627871 204.742147 
L 192.124132 200.440691 
L 191.872275 196.139235 
L 191.245164 191.837779 
L 190.682766 187.536323 
L 190.201765 183.234867 
L 189.760057 178.933411 
L 189.452247 174.631955 
L 189.53897 170.330499 
L 189.995945 166.029043 
L 190.542863 161.727587 
L 191.407006 157.426131 
L 192.636601 153.124675 
L 193.985737 148.823219 
L 195.373944 144.521763 
L 196.683301 140.220306 
L 197.912628 135.91885 
L 199.13093 131.617394 
L 200.234917 127.315938 
L 201.17162 123.014482 
L 202.047599 118.713026 
L 202.84475 114.41157 
L 203.486824 110.110114 
L 203.991543 105.808658 
L 204.434542 101.507202 
L 204.765101 97.205746 
L 205.03868 92.90429 
L 205.343994 88.602834 
L 205.608557 84.301378 
L 205.622746 79.999922 
L 204.88481 75.698466 
L 204.131807 71.39701 
L 205.037365 67.095554 
L 206.107529 62.794098 
L 206.692471 62.794098 
L 206.692471 62.794098 
L 207.762635 67.095554 
L 208.668193 71.39701 
L 207.91519 75.698466 
L 207.177254 79.999922 
L 207.191443 84.301378 
L 207.456006 88.602834 
L 207.76132 92.90429 
L 208.034899 97.205746 
L 208.365458 101.507202 
L 208.808457 105.808658 
L 209.313176 110.110114 
L 209.95525 114.41157 
L 210.752401 118.713026 
L 211.62838 123.014482 
L 212.565083 127.315938 
L 213.66907 131.617394 
L 214.887372 135.91885 
L 216.116699 140.220306 
L 217.426056 144.521763 
L 218.814263 148.823219 
L 220.163399 153.124675 
L 221.392994 157.426131 
L 222.257137 161.727587 
L 222.804055 166.029043 
L 223.26103 170.330499 
L 223.347753 174.631955 
L 223.039943 178.933411 
L 222.598235 183.234867 
L 222.117234 187.536323 
L 221.554836 191.837779 
L 220.927725 196.139235 
L 220.675868 200.440691 
L 221.172129 204.742147 
L 222.211199 209.043603 
L 223.352543 213.345059 
L 224.049437 217.646515 
L 223.6611 221.947971 
L 221.792022 226.249427 
L 218.724268 230.550883 
L 215.341269 234.852339 
L 212.413313 239.153795 
L 210.140771 243.455251 
L 208.592203 247.756707 
L 207.717604 252.058163 
L 207.2045 256.359619 
L 206.86592 260.661075 
L 206.68775 264.962531 
L 206.595711 269.263987 
L 206.517021 273.565443 
L 206.456366 277.866899 
L 206.432861 282.168355 
L 206.42304 286.469811 
L 206.413672 290.771267 
L 206.406774 295.072723 
L 206.402663 299.374179 
L 206.400563 303.675635 
L 206.400048 307.977091 
L 206.400001 312.278547 
L 206.4 316.580003 
L 206.4 320.881459 
L 206.4 325.182915 
L 206.4 329.484371 
L 206.4 333.785827 
L 206.4 338.087283 
L 206.4 342.388739 
L 206.4 346.690195 
L 206.4 350.991651 
L 206.4 355.293107 
L 206.4 359.594563 
L 206.4 363.896019 
L 206.4 368.197475 
L 206.4 372.498931 
L 206.4 376.800387 
L 206.4 381.101843 
L 206.4 385.403299 
L 206.4 389.704755 
L 206.4 394.006211 
L 206.4 398.307667 
L 206.4 402.609123 
L 206.4 406.910579 
L 206.4 411.212035 
L 206.4 415.513491 
L 206.4 419.814948 
L 206.4 424.116404 
L 206.4 428.41786 
L 206.4 432.719316 
L 206.4 437.020772 
L 206.4 441.322228 
L 206.4 445.623684 
L 206.4 449.92514 
L 206.4 454.226596 
L 206.4 458.528052 
L 206.4 462.829508 
L 206.400021 467.130964 
L 206.400306 471.43242 
L 206.401577 475.733876 
L 206.40283 480.035332 
L 206.401766 484.336788 
L 206.400384 488.638244 
z
" clip-path="url(#pcbb28965b4)" style="fill: #3a923a; stroke: #3d3d3d; stroke-width: 1.5"/>
   </g>
   <g id="PolyCollection_4">
    <path d="M 265.920769 488.61373 
L 265.919231 488.61373 
L 265.916447 484.312769 
L 265.914326 480.011809 
L 265.916867 475.710848 
L 265.919402 471.409887 
L 265.91996 467.108926 
L 265.919999 462.807965 
L 265.92 458.507005 
L 265.92 454.206044 
L 265.92 449.905083 
L 265.92 445.604122 
L 265.92 441.303161 
L 265.92 437.002201 
L 265.92 432.70124 
L 265.92 428.400279 
L 265.92 424.099318 
L 265.92 419.798358 
L 265.92 415.497397 
L 265.92 411.196436 
L 265.92 406.895475 
L 265.92 402.594514 
L 265.92 398.293554 
L 265.92 393.992593 
L 265.92 389.691632 
L 265.92 385.390671 
L 265.92 381.08971 
L 265.92 376.78875 
L 265.92 372.487789 
L 265.92 368.186828 
L 265.92 363.885867 
L 265.92 359.584906 
L 265.92 355.283946 
L 265.92 350.982985 
L 265.92 346.682024 
L 265.92 342.381063 
L 265.92 338.080102 
L 265.92 333.779142 
L 265.92 329.478181 
L 265.92 325.17722 
L 265.92 320.876259 
L 265.92 316.575299 
L 265.919997 312.274338 
L 265.919913 307.973377 
L 265.918982 303.672416 
L 265.915647 299.371455 
L 265.911673 295.070495 
L 265.907064 290.769534 
L 265.896963 286.468573 
L 265.883112 282.167612 
L 265.866513 277.866651 
L 265.8349 273.565691 
L 265.773671 269.26473 
L 265.670172 264.963769 
L 265.504314 260.662808 
L 265.209239 256.361847 
L 264.663854 252.060887 
L 263.736143 247.759926 
L 262.263398 243.458965 
L 260.085894 239.158004 
L 257.066788 234.857043 
L 253.581689 230.556083 
L 250.543203 226.255122 
L 248.787972 221.954161 
L 248.422602 217.6532 
L 248.873816 213.352239 
L 249.827138 209.051279 
L 250.737312 204.750318 
L 251.167718 200.449357 
L 251.173985 196.148396 
L 250.948451 191.847436 
L 250.563988 187.546475 
L 249.991853 183.245514 
L 249.392745 178.944553 
L 248.939482 174.643592 
L 248.769759 170.342632 
L 249.073029 166.041671 
L 249.92766 161.74071 
L 250.968384 157.439749 
L 252.102368 153.138788 
L 253.551446 148.837828 
L 255.039505 144.536867 
L 256.415674 140.235906 
L 257.58509 135.934945 
L 258.626165 131.633984 
L 259.631411 127.333024 
L 260.636578 123.032063 
L 261.588368 118.731102 
L 262.343672 114.430141 
L 262.990973 110.12918 
L 263.5349 105.82822 
L 263.942792 101.527259 
L 264.297838 97.226298 
L 264.619377 92.925337 
L 264.935704 88.624377 
L 265.133557 84.323416 
L 265.112544 80.022455 
L 264.407607 75.721494 
L 263.652817 71.420533 
L 264.550101 67.119573 
L 265.626273 62.818612 
L 266.213727 62.818612 
L 266.213727 62.818612 
L 267.289899 67.119573 
L 268.187183 71.420533 
L 267.432393 75.721494 
L 266.727456 80.022455 
L 266.706443 84.323416 
L 266.904296 88.624377 
L 267.220623 92.925337 
L 267.542162 97.226298 
L 267.897208 101.527259 
L 268.3051 105.82822 
L 268.849027 110.12918 
L 269.496328 114.430141 
L 270.251632 118.731102 
L 271.203422 123.032063 
L 272.208589 127.333024 
L 273.213835 131.633984 
L 274.25491 135.934945 
L 275.424326 140.235906 
L 276.800495 144.536867 
L 278.288554 148.837828 
L 279.737632 153.138788 
L 280.871616 157.439749 
L 281.91234 161.74071 
L 282.766971 166.041671 
L 283.070241 170.342632 
L 282.900518 174.643592 
L 282.447255 178.944553 
L 281.848147 183.245514 
L 281.276012 187.546475 
L 280.891549 191.847436 
L 280.666015 196.148396 
L 280.672282 200.449357 
L 281.102688 204.750318 
L 282.012862 209.051279 
L 282.966184 213.352239 
L 283.417398 217.6532 
L 283.052028 221.954161 
L 281.296797 226.255122 
L 278.258311 230.556083 
L 274.773212 234.857043 
L 271.754106 239.158004 
L 269.576602 243.458965 
L 268.103857 247.759926 
L 267.176146 252.060887 
L 266.630761 256.361847 
L 266.335686 260.662808 
L 266.169828 264.963769 
L 266.066329 269.26473 
L 266.0051 273.565691 
L 265.973487 277.866651 
L 265.956888 282.167612 
L 265.943037 286.468573 
L 265.932936 290.769534 
L 265.928327 295.070495 
L 265.924353 299.371455 
L 265.921018 303.672416 
L 265.920087 307.973377 
L 265.920003 312.274338 
L 265.92 316.575299 
L 265.92 320.876259 
L 265.92 325.17722 
L 265.92 329.478181 
L 265.92 333.779142 
L 265.92 338.080102 
L 265.92 342.381063 
L 265.92 346.682024 
L 265.92 350.982985 
L 265.92 355.283946 
L 265.92 359.584906 
L 265.92 363.885867 
L 265.92 368.186828 
L 265.92 372.487789 
L 265.92 376.78875 
L 265.92 381.08971 
L 265.92 385.390671 
L 265.92 389.691632 
L 265.92 393.992593 
L 265.92 398.293554 
L 265.92 402.594514 
L 265.92 406.895475 
L 265.92 411.196436 
L 265.92 415.497397 
L 265.92 419.798358 
L 265.92 424.099318 
L 265.92 428.400279 
L 265.92 432.70124 
L 265.92 437.002201 
L 265.92 441.303161 
L 265.92 445.604122 
L 265.92 449.905083 
L 265.92 454.206044 
L 265.92 458.507005 
L 265.920001 462.807965 
L 265.92004 467.108926 
L 265.920598 471.409887 
L 265.923133 475.710848 
L 265.925674 480.011809 
L 265.923553 484.312769 
L 265.920769 488.61373 
z
" clip-path="url(#pcbb28965b4)" style="fill: #c03d3e; stroke: #3d3d3d; stroke-width: 1.5"/>
   </g>
   <g id="PolyCollection_5">
    <path d="M 325.440793 488.362191 
L 325.439207 488.362191 
L 325.436227 484.06631 
L 325.434182 479.77043 
L 325.437091 475.47455 
L 325.439528 471.17867 
L 325.439975 466.88279 
L 325.44 462.58691 
L 325.44 458.29103 
L 325.44 453.99515 
L 325.44 449.699269 
L 325.44 445.403389 
L 325.44 441.107509 
L 325.44 436.811629 
L 325.44 432.515749 
L 325.44 428.219869 
L 325.44 423.923989 
L 325.44 419.628108 
L 325.44 415.332228 
L 325.44 411.036348 
L 325.44 406.740468 
L 325.44 402.444588 
L 325.44 398.148708 
L 325.44 393.852828 
L 325.44 389.556948 
L 325.44 385.261067 
L 325.44 380.965187 
L 325.44 376.669307 
L 325.44 372.373427 
L 325.44 368.077547 
L 325.44 363.781667 
L 325.44 359.485787 
L 325.44 355.189906 
L 325.44 350.894026 
L 325.44 346.598146 
L 325.44 342.302266 
L 325.44 338.006386 
L 325.44 333.710506 
L 325.44 329.414626 
L 325.44 325.118746 
L 325.44 320.822865 
L 325.44 316.526985 
L 325.44 312.231105 
L 325.44 307.935225 
L 325.439988 303.639345 
L 325.439661 299.343465 
L 325.436626 295.047585 
L 325.426473 290.751704 
L 325.411458 286.455824 
L 325.396477 282.159944 
L 325.380385 277.864064 
L 325.351721 273.568184 
L 325.291841 269.272304 
L 325.168464 264.976424 
L 324.954328 260.680544 
L 324.613494 256.384663 
L 324.045204 252.088783 
L 323.071624 247.792903 
L 321.415437 243.497023 
L 318.902979 239.201143 
L 315.497411 234.905263 
L 311.565087 230.609383 
L 308.280939 226.313502 
L 306.487102 222.017622 
L 306.161058 217.721742 
L 306.875158 213.425862 
L 307.996163 209.129982 
L 308.908555 204.834102 
L 309.298903 200.538222 
L 309.437048 196.242342 
L 309.145072 191.946461 
L 308.555409 187.650581 
L 308.252527 183.354701 
L 308.157037 179.058821 
L 308.343616 174.762941 
L 309.005224 170.467061 
L 309.92208 166.171181 
L 310.974044 161.8753 
L 312.061078 157.57942 
L 313.121271 153.28354 
L 314.381336 148.98766 
L 315.836556 144.69178 
L 317.371648 140.3959 
L 318.670324 136.10002 
L 319.666382 131.80414 
L 320.538277 127.508259 
L 321.326748 123.212379 
L 322.02272 118.916499 
L 322.583931 114.620619 
L 323.046247 110.324739 
L 323.453532 106.028859 
L 323.791186 101.732979 
L 324.100724 97.437099 
L 324.397243 93.141218 
L 324.653624 88.845338 
L 324.822421 84.549458 
L 324.833202 80.253578 
L 324.21442 75.957698 
L 323.420309 71.661818 
L 324.177514 67.365938 
L 325.177312 63.070057 
L 325.702688 63.070057 
L 325.702688 63.070057 
L 326.702486 67.365938 
L 327.459691 71.661818 
L 326.66558 75.957698 
L 326.046798 80.253578 
L 326.057579 84.549458 
L 326.226376 88.845338 
L 326.482757 93.141218 
L 326.779276 97.437099 
L 327.088814 101.732979 
L 327.426468 106.028859 
L 327.833753 110.324739 
L 328.296069 114.620619 
L 328.85728 118.916499 
L 329.553252 123.212379 
L 330.341723 127.508259 
L 331.213618 131.80414 
L 332.209676 136.10002 
L 333.508352 140.3959 
L 335.043444 144.69178 
L 336.498664 148.98766 
L 337.758729 153.28354 
L 338.818922 157.57942 
L 339.905956 161.8753 
L 340.95792 166.171181 
L 341.874776 170.467061 
L 342.536384 174.762941 
L 342.722963 179.058821 
L 342.627473 183.354701 
L 342.324591 187.650581 
L 341.734928 191.946461 
L 341.442952 196.242342 
L 341.581097 200.538222 
L 341.971445 204.834102 
L 342.883837 209.129982 
L 344.004842 213.425862 
L 344.718942 217.721742 
L 344.392898 222.017622 
L 342.599061 226.313502 
L 339.314913 230.609383 
L 335.382589 234.905263 
L 331.977021 239.201143 
L 329.464563 243.497023 
L 327.808376 247.792903 
L 326.834796 252.088783 
L 326.266506 256.384663 
L 325.925672 260.680544 
L 325.711536 264.976424 
L 325.588159 269.272304 
L 325.528279 273.568184 
L 325.499615 277.864064 
L 325.483523 282.159944 
L 325.468542 286.455824 
L 325.453527 290.751704 
L 325.443374 295.047585 
L 325.440339 299.343465 
L 325.440012 303.639345 
L 325.44 307.935225 
L 325.44 312.231105 
L 325.44 316.526985 
L 325.44 320.822865 
L 325.44 325.118746 
L 325.44 329.414626 
L 325.44 333.710506 
L 325.44 338.006386 
L 325.44 342.302266 
L 325.44 346.598146 
L 325.44 350.894026 
L 325.44 355.189906 
L 325.44 359.485787 
L 325.44 363.781667 
L 325.44 368.077547 
L 325.44 372.373427 
L 325.44 376.669307 
L 325.44 380.965187 
L 325.44 385.261067 
L 325.44 389.556948 
L 325.44 393.852828 
L 325.44 398.148708 
L 325.44 402.444588 
L 325.44 406.740468 
L 325.44 411.036348 
L 325.44 415.332228 
L 325.44 419.628108 
L 325.44 423.923989 
L 325.44 428.219869 
L 325.44 432.515749 
L 325.44 436.811629 
L 325.44 441.107509 
L 325.44 445.403389 
L 325.44 449.699269 
L 325.44 453.99515 
L 325.44 458.29103 
L 325.44 462.58691 
L 325.440025 466.88279 
L 325.440472 471.17867 
L 325.442909 475.47455 
L 325.445818 479.77043 
L 325.443773 484.06631 
L 325.440793 488.362191 
z
" clip-path="url(#pcbb28965b4)" style="fill: #9372b2; stroke: #3d3d3d; stroke-width: 1.5"/>
   </g>
   <g id="PolyCollection_6">
    <path d="M 384.960876 487.597297 
L 384.959124 487.597297 
L 384.955422 483.316871 
L 384.953881 479.036444 
L 384.957909 474.756017 
L 384.959817 470.47559 
L 384.959996 466.195163 
L 384.96 461.914737 
L 384.96 457.63431 
L 384.96 453.353883 
L 384.96 449.073456 
L 384.96 444.793029 
L 384.96 440.512603 
L 384.96 436.232176 
L 384.96 431.951749 
L 384.96 427.671322 
L 384.96 423.390895 
L 384.96 419.110469 
L 384.96 414.830042 
L 384.96 410.549615 
L 384.96 406.269188 
L 384.96 401.988761 
L 384.96 397.708335 
L 384.96 393.427908 
L 384.96 389.147481 
L 384.96 384.867054 
L 384.96 380.586627 
L 384.96 376.306201 
L 384.96 372.025774 
L 384.96 367.745347 
L 384.96 363.46492 
L 384.96 359.184494 
L 384.96 354.904067 
L 384.96 350.62364 
L 384.96 346.343213 
L 384.96 342.062786 
L 384.96 337.78236 
L 384.96 333.501933 
L 384.96 329.221506 
L 384.96 324.941079 
L 384.96 320.660652 
L 384.96 316.380226 
L 384.96 312.099799 
L 384.96 307.819372 
L 384.959979 303.538945 
L 384.959452 299.258518 
L 384.955237 294.978092 
L 384.94366 290.697665 
L 384.934663 286.417238 
L 384.932178 282.136811 
L 384.903576 277.856384 
L 384.841403 273.575958 
L 384.765529 269.295531 
L 384.655007 265.015104 
L 384.412265 260.734677 
L 383.964305 256.45425 
L 383.206534 252.173824 
L 381.888642 247.893397 
L 379.653169 243.61297 
L 376.249795 239.332543 
L 371.681815 235.052116 
L 366.746254 230.77169 
L 362.879329 226.491263 
L 361.152 222.210836 
L 361.2566 217.930409 
L 362.460939 213.649982 
L 363.837267 209.369556 
L 364.882196 205.089129 
L 365.241346 200.808702 
L 365.609111 196.528275 
L 366.265547 192.247848 
L 366.653774 187.967422 
L 367.261184 183.686995 
L 368.249482 179.406568 
L 369.430787 175.126141 
L 370.747514 170.845714 
L 372.217662 166.565288 
L 373.798106 162.284861 
L 375.362433 158.004434 
L 376.58799 153.724007 
L 377.764823 149.443581 
L 378.954925 145.163154 
L 380.058218 140.882727 
L 381.046635 136.6023 
L 381.720067 132.321873 
L 382.296412 128.041447 
L 382.768976 123.76102 
L 383.170749 119.480593 
L 383.463824 115.200166 
L 383.628573 110.919739 
L 383.864766 106.639313 
L 384.119544 102.358886 
L 384.253904 98.078459 
L 384.380281 93.798032 
L 384.54592 89.517605 
L 384.658224 85.237179 
L 384.685503 80.956752 
L 384.333823 76.676325 
L 383.506342 72.395898 
L 383.904776 68.115471 
L 384.759334 63.835045 
L 385.160666 63.835045 
L 385.160666 63.835045 
L 386.015224 68.115471 
L 386.413658 72.395898 
L 385.586177 76.676325 
L 385.234497 80.956752 
L 385.261776 85.237179 
L 385.37408 89.517605 
L 385.539719 93.798032 
L 385.666096 98.078459 
L 385.800456 102.358886 
L 386.055234 106.639313 
L 386.291427 110.919739 
L 386.456176 115.200166 
L 386.749251 119.480593 
L 387.151024 123.76102 
L 387.623588 128.041447 
L 388.199933 132.321873 
L 388.873365 136.6023 
L 389.861782 140.882727 
L 390.965075 145.163154 
L 392.155177 149.443581 
L 393.33201 153.724007 
L 394.557567 158.004434 
L 396.121894 162.284861 
L 397.702338 166.565288 
L 399.172486 170.845714 
L 400.489213 175.126141 
L 401.670518 179.406568 
L 402.658816 183.686995 
L 403.266226 187.967422 
L 403.654453 192.247848 
L 404.310889 196.528275 
L 404.678654 200.808702 
L 405.037804 205.089129 
L 406.082733 209.369556 
L 407.459061 213.649982 
L 408.6634 217.930409 
L 408.768 222.210836 
L 407.040671 226.491263 
L 403.173746 230.77169 
L 398.238185 235.052116 
L 393.670205 239.332543 
L 390.266831 243.61297 
L 388.031358 247.893397 
L 386.713466 252.173824 
L 385.955695 256.45425 
L 385.507735 260.734677 
L 385.264993 265.015104 
L 385.154471 269.295531 
L 385.078597 273.575958 
L 385.016424 277.856384 
L 384.987822 282.136811 
L 384.985337 286.417238 
L 384.97634 290.697665 
L 384.964763 294.978092 
L 384.960548 299.258518 
L 384.960021 303.538945 
L 384.96 307.819372 
L 384.96 312.099799 
L 384.96 316.380226 
L 384.96 320.660652 
L 384.96 324.941079 
L 384.96 329.221506 
L 384.96 333.501933 
L 384.96 337.78236 
L 384.96 342.062786 
L 384.96 346.343213 
L 384.96 350.62364 
L 384.96 354.904067 
L 384.96 359.184494 
L 384.96 363.46492 
L 384.96 367.745347 
L 384.96 372.025774 
L 384.96 376.306201 
L 384.96 380.586627 
L 384.96 384.867054 
L 384.96 389.147481 
L 384.96 393.427908 
L 384.96 397.708335 
L 384.96 401.988761 
L 384.96 406.269188 
L 384.96 410.549615 
L 384.96 414.830042 
L 384.96 419.110469 
L 384.96 423.390895 
L 384.96 427.671322 
L 384.96 431.951749 
L 384.96 436.232176 
L 384.96 440.512603 
L 384.96 444.793029 
L 384.96 449.073456 
L 384.96 453.353883 
L 384.96 457.63431 
L 384.96 461.914737 
L 384.960004 466.195163 
L 384.960183 470.47559 
L 384.962091 474.756017 
L 384.966119 479.036444 
L 384.964578 483.316871 
L 384.960876 487.597297 
z
" clip-path="url(#pcbb28965b4)" style="fill: #845b53; stroke: #3d3d3d; stroke-width: 1.5"/>
   </g>
   <g id="matplotlib.axis_1">
    <g id="xtick_1">
     <g id="line2d_1">
      <defs>
       <path id="me4c60395ea" d="M 0 0 
L 0 3.5 
" style="stroke: #000000; stroke-width: 0.8"/>
      </defs>
      <g>
       <use xlink:href="#me4c60395ea" x="87.36" y="307.584" style="stroke: #000000; stroke-width: 0.8"/>
      </g>
     </g>
     <g id="text_1">
      <!-- No Watermark -->
      <g transform="translate(17.336957 340.541918) rotate(-15) scale(0.1 -0.1)">
       <defs>
        <path id="DejaVuSans-4e" d="M 628 4666 
L 1478 4666 
L 3547 763 
L 3547 4666 
L 4159 4666 
L 4159 0 
L 3309 0 
L 1241 3903 
L 1241 0 
L 628 0 
L 628 4666 
z
" transform="scale(0.015625)"/>
        <path id="DejaVuSans-6f" d="M 1959 3097 
Q 1497 3097 1228 2736 
Q 959 2375 959 1747 
Q 959 1119 1226 758 
Q 1494 397 1959 397 
Q 2419 397 2687 759 
Q 2956 1122 2956 1747 
Q 2956 2369 2687 2733 
Q 2419 3097 1959 3097 
z
M 1959 3584 
Q 2709 3584 3137 3096 
Q 3566 2609 3566 1747 
Q 3566 888 3137 398 
Q 2709 -91 1959 -91 
Q 1206 -91 779 398 
Q 353 888 353 1747 
Q 353 2609 779 3096 
Q 1206 3584 1959 3584 
z
" transform="scale(0.015625)"/>
        <path id="DejaVuSans-20" transform="scale(0.015625)"/>
        <path id="DejaVuSans-57" d="M 213 4666 
L 850 4666 
L 1831 722 
L 2809 4666 
L 3519 4666 
L 4500 722 
L 5478 4666 
L 6119 4666 
L 4947 0 
L 4153 0 
L 3169 4050 
L 2175 0 
L 1381 0 
L 213 4666 
z
" transform="scale(0.015625)"/>
        <path id="DejaVuSans-61" d="M 2194 1759 
Q 1497 1759 1228 1600 
Q 959 1441 959 1056 
Q 959 750 1161 570 
Q 1363 391 1709 391 
Q 2188 391 2477 730 
Q 2766 1069 2766 1631 
L 2766 1759 
L 2194 1759 
z
M 3341 1997 
L 3341 0 
L 2766 0 
L 2766 531 
Q 2569 213 2275 61 
Q 1981 -91 1556 -91 
Q 1019 -91 701 211 
Q 384 513 384 1019 
Q 384 1609 779 1909 
Q 1175 2209 1959 2209 
L 2766 2209 
L 2766 2266 
Q 2766 2663 2505 2880 
Q 2244 3097 1772 3097 
Q 1472 3097 1187 3025 
Q 903 2953 641 2809 
L 641 3341 
Q 956 3463 1253 3523 
Q 1550 3584 1831 3584 
Q 2591 3584 2966 3190 
Q 3341 2797 3341 1997 
z
" transform="scale(0.015625)"/>
        <path id="DejaVuSans-74" d="M 1172 4494 
L 1172 3500 
L 2356 3500 
L 2356 3053 
L 1172 3053 
L 1172 1153 
Q 1172 725 1289 603 
Q 1406 481 1766 481 
L 2356 481 
L 2356 0 
L 1766 0 
Q 1100 0 847 248 
Q 594 497 594 1153 
L 594 3053 
L 172 3053 
L 172 3500 
L 594 3500 
L 594 4494 
L 1172 4494 
z
" transform="scale(0.015625)"/>
        <path id="DejaVuSans-65" d="M 3597 1894 
L 3597 1613 
L 953 1613 
Q 991 1019 1311 708 
Q 1631 397 2203 397 
Q 2534 397 2845 478 
Q 3156 559 3463 722 
L 3463 178 
Q 3153 47 2828 -22 
Q 2503 -91 2169 -91 
Q 1331 -91 842 396 
Q 353 884 353 1716 
Q 353 2575 817 3079 
Q 1281 3584 2069 3584 
Q 2775 3584 3186 3129 
Q 3597 2675 3597 1894 
z
M 3022 2063 
Q 3016 2534 2758 2815 
Q 2500 3097 2075 3097 
Q 1594 3097 1305 2825 
Q 1016 2553 972 2059 
L 3022 2063 
z
" transform="scale(0.015625)"/>
        <path id="DejaVuSans-72" d="M 2631 2963 
Q 2534 3019 2420 3045 
Q 2306 3072 2169 3072 
Q 1681 3072 1420 2755 
Q 1159 2438 1159 1844 
L 1159 0 
L 581 0 
L 581 3500 
L 1159 3500 
L 1159 2956 
Q 1341 3275 1631 3429 
Q 1922 3584 2338 3584 
Q 2397 3584 2469 3576 
Q 2541 3569 2628 3553 
L 2631 2963 
z
" transform="scale(0.015625)"/>
        <path id="DejaVuSans-6d" d="M 3328 2828 
Q 3544 3216 3844 3400 
Q 4144 3584 4550 3584 
Q 5097 3584 5394 3201 
Q 5691 2819 5691 2113 
L 5691 0 
L 5113 0 
L 5113 2094 
Q 5113 2597 4934 2840 
Q 4756 3084 4391 3084 
Q 3944 3084 3684 2787 
Q 3425 2491 3425 1978 
L 3425 0 
L 2847 0 
L 2847 2094 
Q 2847 2600 2669 2842 
Q 2491 3084 2119 3084 
Q 1678 3084 1418 2786 
Q 1159 2488 1159 1978 
L 1159 0 
L 581 0 
L 581 3500 
L 1159 3500 
L 1159 2956 
Q 1356 3278 1631 3431 
Q 1906 3584 2284 3584 
Q 2666 3584 2933 3390 
Q 3200 3197 3328 2828 
z
" transform="scale(0.015625)"/>
        <path id="DejaVuSans-6b" d="M 581 4863 
L 1159 4863 
L 1159 1991 
L 2875 3500 
L 3609 3500 
L 1753 1863 
L 3688 0 
L 2938 0 
L 1159 1709 
L 1159 0 
L 581 0 
L 581 4863 
z
" transform="scale(0.015625)"/>
       </defs>
       <use xlink:href="#DejaVuSans-4e"/>
       <use xlink:href="#DejaVuSans-6f" x="74.804688"/>
       <use xlink:href="#DejaVuSans-20" x="135.986328"/>
       <use xlink:href="#DejaVuSans-57" x="167.773438"/>
       <use xlink:href="#DejaVuSans-61" x="260.275391"/>
       <use xlink:href="#DejaVuSans-74" x="321.554688"/>
       <use xlink:href="#DejaVuSans-65" x="360.763672"/>
       <use xlink:href="#DejaVuSans-72" x="422.287109"/>
       <use xlink:href="#DejaVuSans-6d" x="461.650391"/>
       <use xlink:href="#DejaVuSans-61" x="559.0625"/>
       <use xlink:href="#DejaVuSans-72" x="620.341797"/>
       <use xlink:href="#DejaVuSans-6b" x="661.455078"/>
      </g>
     </g>
    </g>
    <g id="xtick_2">
     <g id="line2d_2">
      <g>
       <use xlink:href="#me4c60395ea" x="146.88" y="307.584" style="stroke: #000000; stroke-width: 0.8"/>
      </g>
     </g>
     <g id="text_2">
      <!-- $\delta$-reweight -->
      <g transform="translate(94.369671 335.849501) rotate(-15) scale(0.1 -0.1)">
       <defs>
        <path id="DejaVuSans-Oblique-3b4" d="M 3472 4053 
Q 3197 4272 2450 4272 
Q 1659 4272 1588 3906 
Q 1531 3619 2328 3469 
Q 2953 3353 3253 3003 
Q 3616 2581 3447 1716 
Q 3284 888 2763 400 
Q 2238 -91 1488 -91 
Q 741 -91 406 400 
Q 72 888 241 1747 
Q 363 2384 891 2900 
Q 1097 3100 1353 3213 
Q 913 3459 1000 3900 
Q 1166 4750 2544 4750 
Q 3234 4750 3566 4531 
L 3472 4053 
z
M 1753 3056 
Q 1525 2966 1306 2738 
Q 969 2384 847 1747 
Q 722 1113 919 756 
Q 1119 397 1584 397 
Q 2044 397 2381 759 
Q 2722 1122 2838 1716 
Q 2956 2338 2731 2638 
Q 2491 2959 2103 2994 
Q 1906 3013 1753 3056 
z
" transform="scale(0.015625)"/>
        <path id="DejaVuSans-2d" d="M 313 2009 
L 1997 2009 
L 1997 1497 
L 313 1497 
L 313 2009 
z
" transform="scale(0.015625)"/>
        <path id="DejaVuSans-77" d="M 269 3500 
L 844 3500 
L 1563 769 
L 2278 3500 
L 2956 3500 
L 3675 769 
L 4391 3500 
L 4966 3500 
L 4050 0 
L 3372 0 
L 2619 2869 
L 1863 0 
L 1184 0 
L 269 3500 
z
" transform="scale(0.015625)"/>
        <path id="DejaVuSans-69" d="M 603 3500 
L 1178 3500 
L 1178 0 
L 603 0 
L 603 3500 
z
M 603 4863 
L 1178 4863 
L 1178 4134 
L 603 4134 
L 603 4863 
z
" transform="scale(0.015625)"/>
        <path id="DejaVuSans-67" d="M 2906 1791 
Q 2906 2416 2648 2759 
Q 2391 3103 1925 3103 
Q 1463 3103 1205 2759 
Q 947 2416 947 1791 
Q 947 1169 1205 825 
Q 1463 481 1925 481 
Q 2391 481 2648 825 
Q 2906 1169 2906 1791 
z
M 3481 434 
Q 3481 -459 3084 -895 
Q 2688 -1331 1869 -1331 
Q 1566 -1331 1297 -1286 
Q 1028 -1241 775 -1147 
L 775 -588 
Q 1028 -725 1275 -790 
Q 1522 -856 1778 -856 
Q 2344 -856 2625 -561 
Q 2906 -266 2906 331 
L 2906 616 
Q 2728 306 2450 153 
Q 2172 0 1784 0 
Q 1141 0 747 490 
Q 353 981 353 1791 
Q 353 2603 747 3093 
Q 1141 3584 1784 3584 
Q 2172 3584 2450 3431 
Q 2728 3278 2906 2969 
L 2906 3500 
L 3481 3500 
L 3481 434 
z
" transform="scale(0.015625)"/>
        <path id="DejaVuSans-68" d="M 3513 2113 
L 3513 0 
L 2938 0 
L 2938 2094 
Q 2938 2591 2744 2837 
Q 2550 3084 2163 3084 
Q 1697 3084 1428 2787 
Q 1159 2491 1159 1978 
L 1159 0 
L 581 0 
L 581 4863 
L 1159 4863 
L 1159 2956 
Q 1366 3272 1645 3428 
Q 1925 3584 2291 3584 
Q 2894 3584 3203 3211 
Q 3513 2838 3513 2113 
z
" transform="scale(0.015625)"/>
       </defs>
       <use xlink:href="#DejaVuSans-Oblique-3b4" transform="translate(0 0.015625)"/>
       <use xlink:href="#DejaVuSans-2d" transform="translate(61.181641 0.015625)"/>
       <use xlink:href="#DejaVuSans-72" transform="translate(97.265625 0.015625)"/>
       <use xlink:href="#DejaVuSans-65" transform="translate(138.378906 0.015625)"/>
       <use xlink:href="#DejaVuSans-77" transform="translate(199.902344 0.015625)"/>
       <use xlink:href="#DejaVuSans-65" transform="translate(281.689453 0.015625)"/>
       <use xlink:href="#DejaVuSans-69" transform="translate(343.212891 0.015625)"/>
       <use xlink:href="#DejaVuSans-67" transform="translate(370.996094 0.015625)"/>
       <use xlink:href="#DejaVuSans-68" transform="translate(434.472656 0.015625)"/>
       <use xlink:href="#DejaVuSans-74" transform="translate(497.851562 0.015625)"/>
      </g>
     </g>
    </g>
    <g id="xtick_3">
     <g id="line2d_3">
      <g>
       <use xlink:href="#me4c60395ea" x="206.4" y="307.584" style="stroke: #000000; stroke-width: 0.8"/>
      </g>
     </g>
     <g id="text_3">
      <!-- $\gamma$-reweight -->
      <g transform="translate(154.082856 335.797737) rotate(-15) scale(0.1 -0.1)">
       <defs>
        <path id="DejaVuSans-Oblique-3b3" d="M 1491 2950 
L 1838 788 
L 3456 3500 
L 4066 3500 
L 1972 0 
L 1713 -1331 
L 1138 -1331 
L 1397 0 
L 988 2613 
Q 925 3006 628 3006 
L 475 3006 
L 569 3500 
L 788 3500 
Q 1403 3500 1491 2950 
z
" transform="scale(0.015625)"/>
       </defs>
       <use xlink:href="#DejaVuSans-Oblique-3b3" transform="translate(0 0.015625)"/>
       <use xlink:href="#DejaVuSans-2d" transform="translate(59.179688 0.015625)"/>
       <use xlink:href="#DejaVuSans-72" transform="translate(95.263672 0.015625)"/>
       <use xlink:href="#DejaVuSans-65" transform="translate(136.376953 0.015625)"/>
       <use xlink:href="#DejaVuSans-77" transform="translate(197.900391 0.015625)"/>
       <use xlink:href="#DejaVuSans-65" transform="translate(279.6875 0.015625)"/>
       <use xlink:href="#DejaVuSans-69" transform="translate(341.210938 0.015625)"/>
       <use xlink:href="#DejaVuSans-67" transform="translate(368.994141 0.015625)"/>
       <use xlink:href="#DejaVuSans-68" transform="translate(432.470703 0.015625)"/>
       <use xlink:href="#DejaVuSans-74" transform="translate(495.849609 0.015625)"/>
      </g>
     </g>
    </g>
    <g id="xtick_4">
     <g id="line2d_4">
      <g>
       <use xlink:href="#me4c60395ea" x="265.92" y="307.584" style="stroke: #000000; stroke-width: 0.8"/>
      </g>
     </g>
     <g id="text_4">
      <!-- Soft($\delta$=0.0) -->
      <g transform="translate(209.164854 336.986795) rotate(-15) scale(0.1 -0.1)">
       <defs>
        <path id="DejaVuSans-53" d="M 3425 4513 
L 3425 3897 
Q 3066 4069 2747 4153 
Q 2428 4238 2131 4238 
Q 1616 4238 1336 4038 
Q 1056 3838 1056 3469 
Q 1056 3159 1242 3001 
Q 1428 2844 1947 2747 
L 2328 2669 
Q 3034 2534 3370 2195 
Q 3706 1856 3706 1288 
Q 3706 609 3251 259 
Q 2797 -91 1919 -91 
Q 1588 -91 1214 -16 
Q 841 59 441 206 
L 441 856 
Q 825 641 1194 531 
Q 1563 422 1919 422 
Q 2459 422 2753 634 
Q 3047 847 3047 1241 
Q 3047 1584 2836 1778 
Q 2625 1972 2144 2069 
L 1759 2144 
Q 1053 2284 737 2584 
Q 422 2884 422 3419 
Q 422 4038 858 4394 
Q 1294 4750 2059 4750 
Q 2388 4750 2728 4690 
Q 3069 4631 3425 4513 
z
" transform="scale(0.015625)"/>
        <path id="DejaVuSans-66" d="M 2375 4863 
L 2375 4384 
L 1825 4384 
Q 1516 4384 1395 4259 
Q 1275 4134 1275 3809 
L 1275 3500 
L 2222 3500 
L 2222 3053 
L 1275 3053 
L 1275 0 
L 697 0 
L 697 3053 
L 147 3053 
L 147 3500 
L 697 3500 
L 697 3744 
Q 697 4328 969 4595 
Q 1241 4863 1831 4863 
L 2375 4863 
z
" transform="scale(0.015625)"/>
        <path id="DejaVuSans-28" d="M 1984 4856 
Q 1566 4138 1362 3434 
Q 1159 2731 1159 2009 
Q 1159 1288 1364 580 
Q 1569 -128 1984 -844 
L 1484 -844 
Q 1016 -109 783 600 
Q 550 1309 550 2009 
Q 550 2706 781 3412 
Q 1013 4119 1484 4856 
L 1984 4856 
z
" transform="scale(0.015625)"/>
        <path id="DejaVuSans-3d" d="M 678 2906 
L 4684 2906 
L 4684 2381 
L 678 2381 
L 678 2906 
z
M 678 1631 
L 4684 1631 
L 4684 1100 
L 678 1100 
L 678 1631 
z
" transform="scale(0.015625)"/>
        <path id="DejaVuSans-30" d="M 2034 4250 
Q 1547 4250 1301 3770 
Q 1056 3291 1056 2328 
Q 1056 1369 1301 889 
Q 1547 409 2034 409 
Q 2525 409 2770 889 
Q 3016 1369 3016 2328 
Q 3016 3291 2770 3770 
Q 2525 4250 2034 4250 
z
M 2034 4750 
Q 2819 4750 3233 4129 
Q 3647 3509 3647 2328 
Q 3647 1150 3233 529 
Q 2819 -91 2034 -91 
Q 1250 -91 836 529 
Q 422 1150 422 2328 
Q 422 3509 836 4129 
Q 1250 4750 2034 4750 
z
" transform="scale(0.015625)"/>
        <path id="DejaVuSans-2e" d="M 684 794 
L 1344 794 
L 1344 0 
L 684 0 
L 684 794 
z
" transform="scale(0.015625)"/>
        <path id="DejaVuSans-29" d="M 513 4856 
L 1013 4856 
Q 1481 4119 1714 3412 
Q 1947 2706 1947 2009 
Q 1947 1309 1714 600 
Q 1481 -109 1013 -844 
L 513 -844 
Q 928 -128 1133 580 
Q 1338 1288 1338 2009 
Q 1338 2731 1133 3434 
Q 928 4138 513 4856 
z
" transform="scale(0.015625)"/>
       </defs>
       <use xlink:href="#DejaVuSans-53" transform="translate(0 0.015625)"/>
       <use xlink:href="#DejaVuSans-6f" transform="translate(63.476562 0.015625)"/>
       <use xlink:href="#DejaVuSans-66" transform="translate(124.658203 0.015625)"/>
       <use xlink:href="#DejaVuSans-74" transform="translate(159.863281 0.015625)"/>
       <use xlink:href="#DejaVuSans-28" transform="translate(199.072266 0.015625)"/>
       <use xlink:href="#DejaVuSans-Oblique-3b4" transform="translate(238.085938 0.015625)"/>
       <use xlink:href="#DejaVuSans-3d" transform="translate(299.267578 0.015625)"/>
       <use xlink:href="#DejaVuSans-30" transform="translate(383.056641 0.015625)"/>
       <use xlink:href="#DejaVuSans-2e" transform="translate(446.679688 0.015625)"/>
       <use xlink:href="#DejaVuSans-30" transform="translate(478.466797 0.015625)"/>
       <use xlink:href="#DejaVuSans-29" transform="translate(542.089844 0.015625)"/>
      </g>
     </g>
    </g>
    <g id="xtick_5">
     <g id="line2d_5">
      <g>
       <use xlink:href="#me4c60395ea" x="325.44" y="307.584" style="stroke: #000000; stroke-width: 0.8"/>
      </g>
     </g>
     <g id="text_5">
      <!-- Soft($\delta$=1.0) -->
      <g transform="translate(268.684854 336.986795) rotate(-15) scale(0.1 -0.1)">
       <defs>
        <path id="DejaVuSans-31" d="M 794 531 
L 1825 531 
L 1825 4091 
L 703 3866 
L 703 4441 
L 1819 4666 
L 2450 4666 
L 2450 531 
L 3481 531 
L 3481 0 
L 794 0 
L 794 531 
z
" transform="scale(0.015625)"/>
       </defs>
       <use xlink:href="#DejaVuSans-53" transform="translate(0 0.015625)"/>
       <use xlink:href="#DejaVuSans-6f" transform="translate(63.476562 0.015625)"/>
       <use xlink:href="#DejaVuSans-66" transform="translate(124.658203 0.015625)"/>
       <use xlink:href="#DejaVuSans-74" transform="translate(159.863281 0.015625)"/>
       <use xlink:href="#DejaVuSans-28" transform="translate(199.072266 0.015625)"/>
       <use xlink:href="#DejaVuSans-Oblique-3b4" transform="translate(238.085938 0.015625)"/>
       <use xlink:href="#DejaVuSans-3d" transform="translate(299.267578 0.015625)"/>
       <use xlink:href="#DejaVuSans-31" transform="translate(383.056641 0.015625)"/>
       <use xlink:href="#DejaVuSans-2e" transform="translate(446.679688 0.015625)"/>
       <use xlink:href="#DejaVuSans-30" transform="translate(478.466797 0.015625)"/>
       <use xlink:href="#DejaVuSans-29" transform="translate(542.089844 0.015625)"/>
      </g>
     </g>
    </g>
    <g id="xtick_6">
     <g id="line2d_6">
      <g>
       <use xlink:href="#me4c60395ea" x="384.96" y="307.584" style="stroke: #000000; stroke-width: 0.8"/>
      </g>
     </g>
     <g id="text_6">
      <!-- Soft($\delta$=2.0) -->
      <g transform="translate(328.204854 336.986795) rotate(-15) scale(0.1 -0.1)">
       <defs>
        <path id="DejaVuSans-32" d="M 1228 531 
L 3431 531 
L 3431 0 
L 469 0 
L 469 531 
Q 828 903 1448 1529 
Q 2069 2156 2228 2338 
Q 2531 2678 2651 2914 
Q 2772 3150 2772 3378 
Q 2772 3750 2511 3984 
Q 2250 4219 1831 4219 
Q 1534 4219 1204 4116 
Q 875 4013 500 3803 
L 500 4441 
Q 881 4594 1212 4672 
Q 1544 4750 1819 4750 
Q 2544 4750 2975 4387 
Q 3406 4025 3406 3419 
Q 3406 3131 3298 2873 
Q 3191 2616 2906 2266 
Q 2828 2175 2409 1742 
Q 1991 1309 1228 531 
z
" transform="scale(0.015625)"/>
       </defs>
       <use xlink:href="#DejaVuSans-53" transform="translate(0 0.015625)"/>
       <use xlink:href="#DejaVuSans-6f" transform="translate(63.476562 0.015625)"/>
       <use xlink:href="#DejaVuSans-66" transform="translate(124.658203 0.015625)"/>
       <use xlink:href="#DejaVuSans-74" transform="translate(159.863281 0.015625)"/>
       <use xlink:href="#DejaVuSans-28" transform="translate(199.072266 0.015625)"/>
       <use xlink:href="#DejaVuSans-Oblique-3b4" transform="translate(238.085938 0.015625)"/>
       <use xlink:href="#DejaVuSans-3d" transform="translate(299.267578 0.015625)"/>
       <use xlink:href="#DejaVuSans-32" transform="translate(383.056641 0.015625)"/>
       <use xlink:href="#DejaVuSans-2e" transform="translate(446.679688 0.015625)"/>
       <use xlink:href="#DejaVuSans-30" transform="translate(478.466797 0.015625)"/>
       <use xlink:href="#DejaVuSans-29" transform="translate(542.089844 0.015625)"/>
      </g>
     </g>
    </g>
   </g>
   <g id="matplotlib.axis_2">
    <g id="ytick_1">
     <g id="line2d_7">
      <defs>
       <path id="mb49fc9368e" d="M 0 0 
L -3.5 0 
" style="stroke: #000000; stroke-width: 0.8"/>
      </defs>
      <g>
       <use xlink:href="#mb49fc9368e" x="57.6" y="291.822824" style="stroke: #000000; stroke-width: 0.8"/>
      </g>
     </g>
     <g id="text_7">
      <!-- −0.4 -->
      <g transform="translate(26.317187 295.622043) scale(0.1 -0.1)">
       <defs>
        <path id="DejaVuSans-2212" d="M 678 2272 
L 4684 2272 
L 4684 1741 
L 678 1741 
L 678 2272 
z
" transform="scale(0.015625)"/>
        <path id="DejaVuSans-34" d="M 2419 4116 
L 825 1625 
L 2419 1625 
L 2419 4116 
z
M 2253 4666 
L 3047 4666 
L 3047 1625 
L 3713 1625 
L 3713 1100 
L 3047 1100 
L 3047 0 
L 2419 0 
L 2419 1100 
L 313 1100 
L 313 1709 
L 2253 4666 
z
" transform="scale(0.015625)"/>
       </defs>
       <use xlink:href="#DejaVuSans-2212"/>
       <use xlink:href="#DejaVuSans-30" x="83.789062"/>
       <use xlink:href="#DejaVuSans-2e" x="147.412109"/>
       <use xlink:href="#DejaVuSans-34" x="179.199219"/>
      </g>
     </g>
    </g>
    <g id="ytick_2">
     <g id="line2d_8">
      <g>
       <use xlink:href="#mb49fc9368e" x="57.6" y="260.300472" style="stroke: #000000; stroke-width: 0.8"/>
      </g>
     </g>
     <g id="text_8">
      <!-- −0.2 -->
      <g transform="translate(26.317187 264.099691) scale(0.1 -0.1)">
       <use xlink:href="#DejaVuSans-2212"/>
       <use xlink:href="#DejaVuSans-30" x="83.789062"/>
       <use xlink:href="#DejaVuSans-2e" x="147.412109"/>
       <use xlink:href="#DejaVuSans-32" x="179.199219"/>
      </g>
     </g>
    </g>
    <g id="ytick_3">
     <g id="line2d_9">
      <g>
       <use xlink:href="#mb49fc9368e" x="57.6" y="228.77812" style="stroke: #000000; stroke-width: 0.8"/>
      </g>
     </g>
     <g id="text_9">
      <!-- 0.0 -->
      <g transform="translate(34.696875 232.577339) scale(0.1 -0.1)">
       <use xlink:href="#DejaVuSans-30"/>
       <use xlink:href="#DejaVuSans-2e" x="63.623047"/>
       <use xlink:href="#DejaVuSans-30" x="95.410156"/>
      </g>
     </g>
    </g>
    <g id="ytick_4">
     <g id="line2d_10">
      <g>
       <use xlink:href="#mb49fc9368e" x="57.6" y="197.255768" style="stroke: #000000; stroke-width: 0.8"/>
      </g>
     </g>
     <g id="text_10">
      <!-- 0.2 -->
      <g transform="translate(34.696875 201.054986) scale(0.1 -0.1)">
       <use xlink:href="#DejaVuSans-30"/>
       <use xlink:href="#DejaVuSans-2e" x="63.623047"/>
       <use xlink:href="#DejaVuSans-32" x="95.410156"/>
      </g>
     </g>
    </g>
    <g id="ytick_5">
     <g id="line2d_11">
      <g>
       <use xlink:href="#mb49fc9368e" x="57.6" y="165.733416" style="stroke: #000000; stroke-width: 0.8"/>
      </g>
     </g>
     <g id="text_11">
      <!-- 0.4 -->
      <g transform="translate(34.696875 169.532634) scale(0.1 -0.1)">
       <use xlink:href="#DejaVuSans-30"/>
       <use xlink:href="#DejaVuSans-2e" x="63.623047"/>
       <use xlink:href="#DejaVuSans-34" x="95.410156"/>
      </g>
     </g>
    </g>
    <g id="ytick_6">
     <g id="line2d_12">
      <g>
       <use xlink:href="#mb49fc9368e" x="57.6" y="134.211064" style="stroke: #000000; stroke-width: 0.8"/>
      </g>
     </g>
     <g id="text_12">
      <!-- 0.6 -->
      <g transform="translate(34.696875 138.010282) scale(0.1 -0.1)">
       <defs>
        <path id="DejaVuSans-36" d="M 2113 2584 
Q 1688 2584 1439 2293 
Q 1191 2003 1191 1497 
Q 1191 994 1439 701 
Q 1688 409 2113 409 
Q 2538 409 2786 701 
Q 3034 994 3034 1497 
Q 3034 2003 2786 2293 
Q 2538 2584 2113 2584 
z
M 3366 4563 
L 3366 3988 
Q 3128 4100 2886 4159 
Q 2644 4219 2406 4219 
Q 1781 4219 1451 3797 
Q 1122 3375 1075 2522 
Q 1259 2794 1537 2939 
Q 1816 3084 2150 3084 
Q 2853 3084 3261 2657 
Q 3669 2231 3669 1497 
Q 3669 778 3244 343 
Q 2819 -91 2113 -91 
Q 1303 -91 875 529 
Q 447 1150 447 2328 
Q 447 3434 972 4092 
Q 1497 4750 2381 4750 
Q 2619 4750 2861 4703 
Q 3103 4656 3366 4563 
z
" transform="scale(0.015625)"/>
       </defs>
       <use xlink:href="#DejaVuSans-30"/>
       <use xlink:href="#DejaVuSans-2e" x="63.623047"/>
       <use xlink:href="#DejaVuSans-36" x="95.410156"/>
      </g>
     </g>
    </g>
    <g id="ytick_7">
     <g id="line2d_13">
      <g>
       <use xlink:href="#mb49fc9368e" x="57.6" y="102.688711" style="stroke: #000000; stroke-width: 0.8"/>
      </g>
     </g>
     <g id="text_13">
      <!-- 0.8 -->
      <g transform="translate(34.696875 106.48793) scale(0.1 -0.1)">
       <defs>
        <path id="DejaVuSans-38" d="M 2034 2216 
Q 1584 2216 1326 1975 
Q 1069 1734 1069 1313 
Q 1069 891 1326 650 
Q 1584 409 2034 409 
Q 2484 409 2743 651 
Q 3003 894 3003 1313 
Q 3003 1734 2745 1975 
Q 2488 2216 2034 2216 
z
M 1403 2484 
Q 997 2584 770 2862 
Q 544 3141 544 3541 
Q 544 4100 942 4425 
Q 1341 4750 2034 4750 
Q 2731 4750 3128 4425 
Q 3525 4100 3525 3541 
Q 3525 3141 3298 2862 
Q 3072 2584 2669 2484 
Q 3125 2378 3379 2068 
Q 3634 1759 3634 1313 
Q 3634 634 3220 271 
Q 2806 -91 2034 -91 
Q 1263 -91 848 271 
Q 434 634 434 1313 
Q 434 1759 690 2068 
Q 947 2378 1403 2484 
z
M 1172 3481 
Q 1172 3119 1398 2916 
Q 1625 2713 2034 2713 
Q 2441 2713 2670 2916 
Q 2900 3119 2900 3481 
Q 2900 3844 2670 4047 
Q 2441 4250 2034 4250 
Q 1625 4250 1398 4047 
Q 1172 3844 1172 3481 
z
" transform="scale(0.015625)"/>
       </defs>
       <use xlink:href="#DejaVuSans-30"/>
       <use xlink:href="#DejaVuSans-2e" x="63.623047"/>
       <use xlink:href="#DejaVuSans-38" x="95.410156"/>
      </g>
     </g>
    </g>
    <g id="ytick_8">
     <g id="line2d_14">
      <g>
       <use xlink:href="#mb49fc9368e" x="57.6" y="71.166359" style="stroke: #000000; stroke-width: 0.8"/>
      </g>
     </g>
     <g id="text_14">
      <!-- 1.0 -->
      <g transform="translate(34.696875 74.965578) scale(0.1 -0.1)">
       <use xlink:href="#DejaVuSans-31"/>
       <use xlink:href="#DejaVuSans-2e" x="63.623047"/>
       <use xlink:href="#DejaVuSans-30" x="95.410156"/>
      </g>
     </g>
    </g>
    <g id="text_15">
     <!-- f1 -->
     <g transform="translate(20.2375 179.469406) rotate(-90) scale(0.1 -0.1)">
      <use xlink:href="#DejaVuSans-66"/>
      <use xlink:href="#DejaVuSans-31" x="35.205078"/>
     </g>
    </g>
   </g>
   <g id="line2d_15">
    <path d="M 87.36 289.348149 
L 87.36 72.54587 
" clip-path="url(#pcbb28965b4)" style="fill: none; stroke: #3d3d3d; stroke-width: 1.5; stroke-linecap: square"/>
   </g>
   <g id="line2d_16">
    <path d="M 87.36 211.608836 
L 87.36 155.963206 
" clip-path="url(#pcbb28965b4)" style="fill: none; stroke: #3d3d3d; stroke-width: 4.5; stroke-linecap: square"/>
   </g>
   <g id="line2d_17">
    <path d="M 146.88 292.055242 
L 146.88 71.166059 
" clip-path="url(#pcbb28965b4)" style="fill: none; stroke: #3d3d3d; stroke-width: 1.5; stroke-linecap: square"/>
   </g>
   <g id="line2d_18">
    <path d="M 146.88 211.436281 
L 146.88 155.253352 
" clip-path="url(#pcbb28965b4)" style="fill: none; stroke: #3d3d3d; stroke-width: 4.5; stroke-linecap: square"/>
   </g>
   <g id="line2d_19">
    <path d="M 206.4 291.090292 
L 206.4 72.15821 
" clip-path="url(#pcbb28965b4)" style="fill: none; stroke: #3d3d3d; stroke-width: 1.5; stroke-linecap: square"/>
   </g>
   <g id="line2d_20">
    <path d="M 206.4 211.835628 
L 206.4 155.947054 
" clip-path="url(#pcbb28965b4)" style="fill: none; stroke: #3d3d3d; stroke-width: 4.5; stroke-linecap: square"/>
   </g>
   <g id="line2d_21">
    <path d="M 265.92 289.348159 
L 265.92 72.545926 
" clip-path="url(#pcbb28965b4)" style="fill: none; stroke: #3d3d3d; stroke-width: 1.5; stroke-linecap: square"/>
   </g>
   <g id="line2d_22">
    <path d="M 265.92 211.608836 
L 265.92 155.963188 
" clip-path="url(#pcbb28965b4)" style="fill: none; stroke: #3d3d3d; stroke-width: 4.5; stroke-linecap: square"/>
   </g>
   <g id="line2d_23">
    <path d="M 325.44 289.239602 
L 325.44 82.20928 
" clip-path="url(#pcbb28965b4)" style="fill: none; stroke: #3d3d3d; stroke-width: 1.5; stroke-linecap: square"/>
   </g>
   <g id="line2d_24">
    <path d="M 325.44 214.129863 
L 325.44 161.340693 
" clip-path="url(#pcbb28965b4)" style="fill: none; stroke: #3d3d3d; stroke-width: 4.5; stroke-linecap: square"/>
   </g>
   <g id="line2d_25">
    <path d="M 384.96 286.778449 
L 384.96 106.695606 
" clip-path="url(#pcbb28965b4)" style="fill: none; stroke: #3d3d3d; stroke-width: 1.5; stroke-linecap: square"/>
   </g>
   <g id="line2d_26">
    <path d="M 384.96 219.385018 
L 384.96 174.306489 
" clip-path="url(#pcbb28965b4)" style="fill: none; stroke: #3d3d3d; stroke-width: 4.5; stroke-linecap: square"/>
   </g>
   <g id="line2d_27">
    <path d="M 57.6 180.789559 
L 414.72 180.789559 
" clip-path="url(#pcbb28965b4)" style="fill: none; stroke-dasharray: 5.55,2.4; stroke-dashoffset: 0; stroke: #ff0000; stroke-width: 1.5"/>
   </g>
   <g id="patch_3">
    <path d="M 57.6 307.584 
L 57.6 41.472 
" style="fill: none; stroke: #000000; stroke-width: 0.8; stroke-linejoin: miter; stroke-linecap: square"/>
   </g>
   <g id="patch_4">
    <path d="M 414.72 307.584 
L 414.72 41.472 
" style="fill: none; stroke: #000000; stroke-width: 0.8; stroke-linejoin: miter; stroke-linecap: square"/>
   </g>
   <g id="patch_5">
    <path d="M 57.6 307.584 
L 414.72 307.584 
" style="fill: none; stroke: #000000; stroke-width: 0.8; stroke-linejoin: miter; stroke-linecap: square"/>
   </g>
   <g id="patch_6">
    <path d="M 57.6 41.472 
L 414.72 41.472 
" style="fill: none; stroke: #000000; stroke-width: 0.8; stroke-linejoin: miter; stroke-linecap: square"/>
   </g>
   <g id="PathCollection_1">
    <defs>
     <path id="mea4f915c00" d="M 0 1.5 
C 0.397805 1.5 0.77937 1.341951 1.06066 1.06066 
C 1.341951 0.77937 1.5 0.397805 1.5 0 
C 1.5 -0.397805 1.341951 -0.77937 1.06066 -1.06066 
C 0.77937 -1.341951 0.397805 -1.5 0 -1.5 
C -0.397805 -1.5 -0.77937 -1.341951 -1.06066 -1.06066 
C -1.341951 -0.77937 -1.5 -0.397805 -1.5 0 
C -1.5 0.397805 -1.341951 0.77937 -1.06066 1.06066 
C -0.77937 1.341951 -0.397805 1.5 0 1.5 
z
" style="stroke: #3d3d3d"/>
    </defs>
    <g clip-path="url(#pcbb28965b4)">
     <use xlink:href="#mea4f915c00" x="87.36" y="182.61682" style="fill: #ffffff; stroke: #3d3d3d"/>
    </g>
   </g>
   <g id="PathCollection_2">
    <g clip-path="url(#pcbb28965b4)">
     <use xlink:href="#mea4f915c00" x="146.88" y="182.306068" style="fill: #ffffff; stroke: #3d3d3d"/>
    </g>
   </g>
   <g id="PathCollection_3">
    <g clip-path="url(#pcbb28965b4)">
     <use xlink:href="#mea4f915c00" x="206.4" y="182.680914" style="fill: #ffffff; stroke: #3d3d3d"/>
    </g>
   </g>
   <g id="PathCollection_4">
    <g clip-path="url(#pcbb28965b4)">
     <use xlink:href="#mea4f915c00" x="265.92" y="182.616795" style="fill: #ffffff; stroke: #3d3d3d"/>
    </g>
   </g>
   <g id="PathCollection_5">
    <g clip-path="url(#pcbb28965b4)">
     <use xlink:href="#mea4f915c00" x="325.44" y="187.716933" style="fill: #ffffff; stroke: #3d3d3d"/>
    </g>
   </g>
   <g id="PathCollection_6">
    <g clip-path="url(#pcbb28965b4)">
     <use xlink:href="#mea4f915c00" x="384.96" y="198.772329" style="fill: #ffffff; stroke: #3d3d3d"/>
    </g>
   </g>
   <g id="legend_1">
    <g id="patch_7">
     <path d="M 172.67 64.150125 
L 407.72 64.150125 
Q 409.72 64.150125 409.72 62.150125 
L 409.72 48.472 
Q 409.72 46.472 407.72 46.472 
L 172.67 46.472 
Q 170.67 46.472 170.67 48.472 
L 170.67 62.150125 
Q 170.67 64.150125 172.67 64.150125 
z
" style="fill: #ffffff; opacity: 0.8; stroke: #cccccc; stroke-linejoin: miter"/>
    </g>
    <g id="line2d_28">
     <path d="M 174.67 54.570438 
L 184.67 54.570438 
L 194.67 54.570438 
" style="fill: none; stroke-dasharray: 5.55,2.4; stroke-dashoffset: 0; stroke: #ff0000; stroke-width: 1.5"/>
    </g>
    <g id="text_16">
     <!-- Mean f1 of the BertScore w/o watermark -->
     <g transform="translate(202.67 58.070438) scale(0.1 -0.1)">
      <defs>
       <path id="DejaVuSans-4d" d="M 628 4666 
L 1569 4666 
L 2759 1491 
L 3956 4666 
L 4897 4666 
L 4897 0 
L 4281 0 
L 4281 4097 
L 3078 897 
L 2444 897 
L 1241 4097 
L 1241 0 
L 628 0 
L 628 4666 
z
" transform="scale(0.015625)"/>
       <path id="DejaVuSans-6e" d="M 3513 2113 
L 3513 0 
L 2938 0 
L 2938 2094 
Q 2938 2591 2744 2837 
Q 2550 3084 2163 3084 
Q 1697 3084 1428 2787 
Q 1159 2491 1159 1978 
L 1159 0 
L 581 0 
L 581 3500 
L 1159 3500 
L 1159 2956 
Q 1366 3272 1645 3428 
Q 1925 3584 2291 3584 
Q 2894 3584 3203 3211 
Q 3513 2838 3513 2113 
z
" transform="scale(0.015625)"/>
       <path id="DejaVuSans-42" d="M 1259 2228 
L 1259 519 
L 2272 519 
Q 2781 519 3026 730 
Q 3272 941 3272 1375 
Q 3272 1813 3026 2020 
Q 2781 2228 2272 2228 
L 1259 2228 
z
M 1259 4147 
L 1259 2741 
L 2194 2741 
Q 2656 2741 2882 2914 
Q 3109 3088 3109 3444 
Q 3109 3797 2882 3972 
Q 2656 4147 2194 4147 
L 1259 4147 
z
M 628 4666 
L 2241 4666 
Q 2963 4666 3353 4366 
Q 3744 4066 3744 3513 
Q 3744 3084 3544 2831 
Q 3344 2578 2956 2516 
Q 3422 2416 3680 2098 
Q 3938 1781 3938 1306 
Q 3938 681 3513 340 
Q 3088 0 2303 0 
L 628 0 
L 628 4666 
z
" transform="scale(0.015625)"/>
       <path id="DejaVuSans-63" d="M 3122 3366 
L 3122 2828 
Q 2878 2963 2633 3030 
Q 2388 3097 2138 3097 
Q 1578 3097 1268 2742 
Q 959 2388 959 1747 
Q 959 1106 1268 751 
Q 1578 397 2138 397 
Q 2388 397 2633 464 
Q 2878 531 3122 666 
L 3122 134 
Q 2881 22 2623 -34 
Q 2366 -91 2075 -91 
Q 1284 -91 818 406 
Q 353 903 353 1747 
Q 353 2603 823 3093 
Q 1294 3584 2113 3584 
Q 2378 3584 2631 3529 
Q 2884 3475 3122 3366 
z
" transform="scale(0.015625)"/>
       <path id="DejaVuSans-2f" d="M 1625 4666 
L 2156 4666 
L 531 -594 
L 0 -594 
L 1625 4666 
z
" transform="scale(0.015625)"/>
      </defs>
      <use xlink:href="#DejaVuSans-4d"/>
      <use xlink:href="#DejaVuSans-65" x="86.279297"/>
      <use xlink:href="#DejaVuSans-61" x="147.802734"/>
      <use xlink:href="#DejaVuSans-6e" x="209.082031"/>
      <use xlink:href="#DejaVuSans-20" x="272.460938"/>
      <use xlink:href="#DejaVuSans-66" x="304.248047"/>
      <use xlink:href="#DejaVuSans-31" x="339.453125"/>
      <use xlink:href="#DejaVuSans-20" x="403.076172"/>
      <use xlink:href="#DejaVuSans-6f" x="434.863281"/>
      <use xlink:href="#DejaVuSans-66" x="496.044922"/>
      <use xlink:href="#DejaVuSans-20" x="531.25"/>
      <use xlink:href="#DejaVuSans-74" x="563.037109"/>
      <use xlink:href="#DejaVuSans-68" x="602.246094"/>
      <use xlink:href="#DejaVuSans-65" x="665.625"/>
      <use xlink:href="#DejaVuSans-20" x="727.148438"/>
      <use xlink:href="#DejaVuSans-42" x="758.935547"/>
      <use xlink:href="#DejaVuSans-65" x="827.539062"/>
      <use xlink:href="#DejaVuSans-72" x="889.0625"/>
      <use xlink:href="#DejaVuSans-74" x="930.175781"/>
      <use xlink:href="#DejaVuSans-53" x="969.384766"/>
      <use xlink:href="#DejaVuSans-63" x="1032.861328"/>
      <use xlink:href="#DejaVuSans-6f" x="1087.841797"/>
      <use xlink:href="#DejaVuSans-72" x="1149.023438"/>
      <use xlink:href="#DejaVuSans-65" x="1187.886719"/>
      <use xlink:href="#DejaVuSans-20" x="1249.410156"/>
      <use xlink:href="#DejaVuSans-77" x="1281.197266"/>
      <use xlink:href="#DejaVuSans-2f" x="1362.984375"/>
      <use xlink:href="#DejaVuSans-6f" x="1396.675781"/>
      <use xlink:href="#DejaVuSans-20" x="1457.857422"/>
      <use xlink:href="#DejaVuSans-77" x="1489.644531"/>
      <use xlink:href="#DejaVuSans-61" x="1571.431641"/>
      <use xlink:href="#DejaVuSans-74" x="1632.710938"/>
      <use xlink:href="#DejaVuSans-65" x="1671.919922"/>
      <use xlink:href="#DejaVuSans-72" x="1733.443359"/>
      <use xlink:href="#DejaVuSans-6d" x="1772.806641"/>
      <use xlink:href="#DejaVuSans-61" x="1870.21875"/>
      <use xlink:href="#DejaVuSans-72" x="1931.498047"/>
      <use xlink:href="#DejaVuSans-6b" x="1972.611328"/>
     </g>
    </g>
   </g>
  </g>
 </g>
 <defs>
  <clipPath id="pcbb28965b4">
   <rect x="57.6" y="41.472" width="357.12" height="266.112"/>
  </clipPath>
 </defs>
</svg>
